<svg viewBox="0 0 256 262" xmlns="http://www.w3.org/2000/svg" preserveAspectRatio="xMidYMid">
  <g>
    <path d="M255.9 133.5c0-11.4-.9-23.1-2.8-34.2H130v64.9h70.4c-3.1 16.7-12.6 30.7-27 40.1l43.6 33.7c25.4-23.5 39.9-58.1 39.9-104.5z" fill="#4285F4"></path>
    <path d="M130 261c35.3 0 64.9-11.7 86.5-31.6l-43.6-33.7c-12.1 8.1-27.5 12.9-42.9 12.9-32.9 0-60.8-22.2-70.8-52.1H14.7v32.9C35.5 231.3 79.9 261 130 261z" fill="#34A853"></path>
    <path d="M59.2 156.5c-2.8-8.1-4.4-16.7-4.4-25.5s1.6-17.4 4.4-25.5V72.6H14.7C5.3 91.5 0 111.8 0 133.5c0 21.6 5.3 41.9 14.7 60.8l44.5-33.8z" fill="#FBBC05"></path>
    <path d="M130 52.1c19.3 0 36.5 6.6 50 19.4l37.5-37.5C194.9 11.7 165.3 0 130 0 79.9 0 35.5 29.7 14.7 72.6l44.5 33.9c10-29.9 37.9-52.2 70.8-52.2z" fill="#EA4335"></path>
  </g>
</svg>
